<svg width="26" height="26" viewBox="0 0 26 26" fill="none" xmlns="http://www.w3.org/2000/svg">
<g clip-path="url(#clip0_10182_1682)">
<path d="M1 13C1 19.6274 6.37258 25 13 25C19.6274 25 25 19.6274 25 13C25 6.37258 19.6274 1 13 1C6.37258 1 1 6.37258 1 13Z" fill="#0E092A"/>
<path fill-rule="evenodd" clip-rule="evenodd" d="M7.93677 13.887L8.38123 14.3644C8.4316 14.4181 8.49241 14.4611 8.55993 14.4906C8.62746 14.5201 8.70029 14.5355 8.77398 14.5359H15.1551L19.7708 14.5359C19.8232 14.5356 19.8743 14.5201 19.918 14.4912C19.9616 14.4624 19.996 14.4215 20.0168 14.3734C20.0376 14.3254 20.044 14.2724 20.0352 14.2208C20.0264 14.1692 20.0028 14.1213 19.9672 14.0829L18.3209 12.3137L17.6513 11.5942C17.6009 11.5404 17.5401 11.4975 17.4726 11.468C17.4051 11.4385 17.3322 11.4231 17.2586 11.4227H10.3347H6.26172C6.20927 11.4227 6.15797 11.4381 6.11409 11.4668C6.07022 11.4955 6.03568 11.5364 6.0147 11.5845C5.99372 11.6326 5.98722 11.6857 5.99598 11.7374C6.00474 11.7892 6.02839 11.8372 6.06404 11.8757L7.93677 13.887ZM12.0547 9.80721H17.2586C17.3323 9.80715 17.4052 9.79189 17.4728 9.76238C17.5404 9.73288 17.6011 9.68976 17.6513 9.63572L19.9711 7.14834C19.9983 7.11959 20.0188 7.08519 20.0312 7.04759C20.0435 7.01 20.0474 6.97014 20.0426 6.93087C20.0377 6.8916 20.0243 6.85388 20.0032 6.82041C19.9821 6.78694 19.9538 6.75855 19.9205 6.73726C19.9149 6.73371 19.9092 6.73038 19.9034 6.72726C19.8715 6.71013 19.8365 6.69964 19.8005 6.6964C19.7939 6.69581 19.7873 6.69545 19.7807 6.69535C19.7774 6.69529 19.7741 6.6953 19.7708 6.69537H16.1857L8.77398 6.69537C8.70024 6.69545 8.62732 6.71072 8.55974 6.74022C8.49217 6.76973 8.43141 6.81284 8.38123 6.86687L6.7808 8.58484L6.06404 9.35425C6.02839 9.39272 6.00474 9.44076 5.99598 9.49247C5.98722 9.54418 5.99372 9.59733 6.0147 9.6454C6.03568 9.69347 6.07022 9.73438 6.11409 9.76312C6.13671 9.77794 6.16131 9.78919 6.18701 9.79662C6.21117 9.8036 6.23631 9.8072 6.26172 9.80721L12.0547 9.80721ZM13.3064 16.1513H8.77398C8.70024 16.1514 8.62732 16.1667 8.55974 16.1962C8.49217 16.2257 8.43141 16.2688 8.38123 16.3228L6.06404 18.8102C6.03909 18.8372 6.02002 18.8688 6.00781 18.903C6.00258 18.9177 5.99861 18.9329 5.99598 18.9484C5.99488 18.9549 5.99403 18.9614 5.99341 18.9679C5.99182 18.9845 5.99179 19.0011 5.99327 19.0177C5.99585 19.0464 6.00304 19.0747 6.0147 19.1014C6.01995 19.1134 6.02604 19.125 6.03291 19.136C6.05353 19.1691 6.08119 19.1975 6.11409 19.2191C6.15797 19.2478 6.20927 19.2632 6.26172 19.2632H10.1931L17.2586 19.2632C17.3323 19.2631 17.4052 19.2479 17.4728 19.2184C17.5404 19.1888 17.6011 19.1457 17.6513 19.0917L19.9711 16.6043C20.0075 16.5659 20.0318 16.5176 20.0408 16.4654C20.0498 16.4132 20.0432 16.3595 20.0218 16.3111C20.0004 16.2627 19.9651 16.2217 19.9205 16.1933C19.8758 16.1648 19.8238 16.1503 19.7708 16.1513L13.3064 16.1513ZM8.25919 13.5454L8.72337 14.0439L8.72363 14.0442C8.73039 14.0514 8.73851 14.0571 8.74752 14.061C8.75644 14.0649 8.76605 14.067 8.77578 14.0671H15.7444C16.4514 13.5191 17.1719 13.0131 17.9096 12.5598L17.3092 11.9146L17.3089 11.9143C17.3021 11.9072 17.294 11.9015 17.285 11.8976C17.2761 11.8937 17.2665 11.8916 17.2568 11.8915H9.86255C9.32436 12.4312 8.79053 12.9844 8.25919 13.5454ZM12.8086 16.6201H8.77447C8.76512 16.6201 8.75589 16.622 8.74733 16.6258C8.73877 16.6295 8.73107 16.635 8.72471 16.6418L8.72446 16.6421L6.71938 18.7944H10.6398C11.3557 18.0479 12.0771 17.3185 12.8086 16.6201ZM12.5899 9.33846H17.2582H17.2583C17.2676 9.33844 17.2767 9.33652 17.2852 9.3328C17.2938 9.32908 17.3014 9.32364 17.3078 9.31681L19.3154 7.16412H15.4423C14.4652 7.80803 13.5173 8.54155 12.5899 9.33846Z" fill="url(#paint0_linear_10182_1682)"/>
</g>
<rect x="0.5" y="0.5" width="25" height="25" rx="12.5" stroke="#48499A" stroke-opacity="0.25"/>
<defs>
<linearGradient id="paint0_linear_10182_1682" x1="18.3684" y1="19.4256" x2="10.0264" y2="6.16047" gradientUnits="userSpaceOnUse">
<stop offset="0.25" stop-color="#FF5C28"/>
<stop offset="1" stop-color="#F99150"/>
</linearGradient>
<clipPath id="clip0_10182_1682">
<rect x="1" y="1" width="24" height="24" rx="12" fill="white"/>
</clipPath>
</defs>
</svg>
